<svg width="40" height="40" viewBox="0 0 40 40" fill="none" xmlns="http://www.w3.org/2000/svg">
<path d="M19.9905 40H20.0095C31.0507 40 40 31.0495 40 20.0102V20.0008C40.0016 8.95369 31.0475 0 20.0016 0C8.95405 0 0 8.9537 0 19.9992V20.0087C0 31.0495 8.95089 40 19.9905 40Z" fill="#2F80ED"/>
<path d="M21.8801 32.6933V21.6084H25.6005L26.157 17.2876H21.8786V14.5289C21.8786 13.2789 22.2254 12.4261 24.0193 12.4261L26.3067 12.4245V8.56087C25.911 8.50885 24.5522 8.39062 22.9726 8.39062C19.6747 8.39062 17.4157 10.4036 17.4157 14.1018V17.2876H13.6875V21.6084H17.4189V32.6933H21.8801Z" fill="white"/>
</svg>
