<svg width="40" height="40" viewBox="0 0 40 40" fill="none" xmlns="http://www.w3.org/2000/svg">
<path d="M19.9905 40H20.0095C31.0507 40 40 31.0495 40 20.0102V20.0008C40.0016 8.95369 31.0475 0 20.0016 0C8.95405 0 0 8.9537 0 19.9992V20.0087C0 31.0495 8.95089 40 19.9905 40Z" fill="#2F80ED"/>
<path d="M19.9991 11.5927C22.7373 11.5927 23.0621 11.6038 24.1435 11.6526C25.143 11.6983 25.6868 11.8654 26.0478 12.0057C26.5271 12.1917 26.8676 12.414 27.227 12.7734C27.5864 13.1328 27.8087 13.4733 27.9947 13.9525C28.135 14.3135 28.3021 14.8573 28.3478 15.8568C28.3967 16.9381 28.4077 17.2629 28.4077 20.001C28.4077 22.7391 28.3967 23.0638 28.3478 24.1452C28.3021 25.1446 28.135 25.6885 27.9947 26.0495C27.8087 26.5287 27.5864 26.8692 27.227 27.2286C26.8676 27.588 26.5271 27.8103 26.0478 27.9963C25.6868 28.1366 25.143 28.3037 24.1435 28.3494C23.0621 28.3982 22.7373 28.4093 19.9991 28.4093C17.2609 28.4093 16.9361 28.3982 15.8547 28.3494C14.8553 28.3037 14.3114 28.1366 13.9504 27.9963C13.4712 27.8103 13.1307 27.588 12.7712 27.2286C12.4118 26.8692 12.1895 26.5287 12.0035 26.0495C11.8632 25.6885 11.6961 25.1446 11.6504 24.1452C11.6015 23.0638 11.5905 22.7391 11.5905 20.001C11.5905 17.2629 11.6015 16.9381 11.6504 15.8568C11.6961 14.8573 11.8632 14.3135 12.0035 13.9525C12.1895 13.4733 12.4118 13.1328 12.7712 12.7734C13.1307 12.414 13.4712 12.1917 13.9504 12.0057C14.3114 11.8654 14.8553 11.6983 15.8547 11.6526C16.9361 11.6022 17.2593 11.5927 19.9991 11.5927ZM19.9991 9.74365C17.2136 9.74365 16.8636 9.75469 15.7712 9.80513C14.6787 9.85557 13.9346 10.029 13.282 10.2812C12.6073 10.5429 12.0351 10.8944 11.466 11.4635C10.8953 12.0341 10.5453 12.6063 10.2837 13.2794C10.0298 13.932 9.85644 14.6776 9.80757 15.7685C9.75713 16.8625 9.74609 17.2108 9.74609 19.9963C9.74609 22.7817 9.75713 23.1316 9.80757 24.224C9.85802 25.3165 10.0314 26.0605 10.2837 26.7131C10.5453 27.3878 10.8969 27.96 11.466 28.5291C12.0366 29.0997 12.6089 29.4497 13.282 29.7113C13.9346 29.9651 14.6803 30.1385 15.7712 30.1874C16.8652 30.2378 17.2136 30.2489 19.9991 30.2489C22.7846 30.2489 23.1346 30.2378 24.2271 30.1874C25.3195 30.137 26.0636 29.9636 26.7162 29.7113C27.3909 29.4497 27.9632 29.0981 28.5323 28.5291C29.1029 27.9584 29.4529 27.3862 29.7146 26.7131C29.9684 26.0605 30.1418 25.3149 30.1906 24.224C30.2411 23.1301 30.2521 22.7817 30.2521 19.9963C30.2521 17.2108 30.2411 16.8609 30.1906 15.7685C30.1402 14.6761 29.9668 13.932 29.7146 13.2794C29.4529 12.6047 29.1013 12.0325 28.5323 11.4635C27.9616 10.8928 27.3894 10.5429 26.7162 10.2812C26.0636 10.0274 25.3179 9.854 24.2271 9.80513C23.133 9.75626 22.7831 9.74365 19.9991 9.74365Z" fill="white"/>
<path d="M19.9973 14.7339C17.0888 14.7339 14.7305 17.0921 14.7305 20.0005C14.7305 22.9089 17.0888 25.2671 19.9973 25.2671C22.9058 25.2671 25.2641 22.9089 25.2641 20.0005C25.2641 17.0921 22.9058 14.7339 19.9973 14.7339ZM19.9973 23.418C18.1087 23.418 16.578 21.8874 16.578 19.9989C16.578 18.1104 18.1087 16.5798 19.9973 16.5798C21.8858 16.5798 23.4165 18.1104 23.4165 19.9989C23.4165 21.8874 21.8842 23.418 19.9973 23.418Z" fill="white"/>
<path d="M25.4734 15.7572C26.1533 15.7572 26.7046 15.206 26.7046 14.5261C26.7046 13.8461 26.1533 13.2949 25.4734 13.2949C24.7934 13.2949 24.2422 13.8461 24.2422 14.5261C24.2422 15.206 24.7934 15.7572 25.4734 15.7572Z" fill="white"/>
</svg>
