<svg width="40" height="40" viewBox="0 0 40 40" fill="none" xmlns="http://www.w3.org/2000/svg">
<path d="M19.9905 40H20.0095C31.0507 40 40 31.0495 40 20.0102V20.0008C40.0016 8.95369 31.0475 0 20.0016 0C8.95405 0 0 8.9537 0 19.9992V20.0087C0 31.0495 8.95089 40 19.9905 40Z" fill="#2F80ED"/>
<g clip-path="url(#clip0_10918_2905)">
<path d="M19.9993 12.0253C21.2201 12.0253 22.213 12.9839 22.213 14.1625C22.213 15.3401 21.2196 16.2988 19.9993 16.2988C18.7794 16.2988 17.7859 15.3401 17.7859 14.1625C17.7855 12.9835 18.7794 12.0253 19.9993 12.0253ZM19.9993 19.3223C22.9482 19.3223 25.3459 17.008 25.3459 14.1625C25.3459 11.3152 22.9482 9 19.9993 9C17.0508 9 14.6522 11.3156 14.6522 14.1625C14.6522 17.0076 17.0508 19.3223 19.9993 19.3223ZM22.1622 23.5324C23.2619 23.2906 24.3118 22.8709 25.2669 22.2914C25.9993 21.8467 26.2192 20.913 25.7585 20.2064C25.2988 19.4994 24.3326 19.2862 23.6002 19.73C23.5997 19.7305 23.5988 19.7309 23.5983 19.7309C21.4077 21.0602 18.5886 21.0593 16.3997 19.7309C15.6683 19.2862 14.7021 19.498 14.2414 20.2042C14.2409 20.2051 14.2405 20.2055 14.24 20.2064C13.7793 20.913 13.9988 21.8467 14.7307 22.2914C15.6858 22.8709 16.7352 23.2902 17.8349 23.5324L14.8458 26.4185C14.234 27.0091 14.2345 27.9669 14.8462 28.5575C15.458 29.1481 16.4501 29.1477 17.0619 28.557L19.9983 25.7218L22.9367 28.5575C23.547 29.1477 24.5373 29.1485 25.1486 28.5593C25.149 28.5588 25.1495 28.5584 25.1504 28.5575C25.7622 27.9687 25.7636 27.0132 25.1537 26.4225C25.1527 26.4217 25.1514 26.4203 25.1504 26.4194L22.1622 23.5324Z" fill="white"/>
</g>
<defs>
<clipPath id="clip0_10918_2905">
<rect width="12" height="20" fill="white" transform="translate(14 9)"/>
</clipPath>
</defs>
</svg>
