<svg width="40" height="40" viewBox="0 0 40 40" fill="none" xmlns="http://www.w3.org/2000/svg">
<path fill-rule="evenodd" clip-rule="evenodd" d="M16.5545 1.1083C17.6723 0.905767 18.8238 0.800006 20 0.800006C30.6039 0.800006 39.2 9.39614 39.2 20C39.2 21.1762 39.0943 22.3277 38.8917 23.4455C39.6025 24.948 40 26.6275 40 28.4C40 34.8065 34.8065 40 28.4 40C26.6275 40 24.948 39.6025 23.4455 38.8917C22.3277 39.0942 21.1762 39.2 20 39.2C9.39615 39.2 0.800013 30.6039 0.800013 20C0.800013 18.8238 0.905774 17.6723 1.1083 16.5546C0.397534 15.0521 0 13.3725 0 11.6C0 5.1935 5.1935 0 11.6 0C13.3725 0 15.0521 0.397532 16.5545 1.1083Z" fill="#2F80ED"/>
<path fill-rule="evenodd" clip-rule="evenodd" d="M15.0208 19.6352C14.2702 19.1407 13.644 18.4795 13.191 17.7032C12.7534 16.8835 12.5373 15.9637 12.5643 15.0348C12.5309 13.8559 12.9332 12.7061 13.6941 11.8051C14.4846 10.9003 15.5008 10.221 16.6392 9.83655C17.8776 9.39924 19.1824 9.17971 20.4957 9.18768C21.3551 9.17954 22.2137 9.2454 23.0618 9.38452C23.6685 9.47831 24.2644 9.63218 24.8406 9.84385C25.37 10.0231 25.8479 10.3284 26.2331 10.7333C26.5171 11.0663 26.67 11.4914 26.6632 11.929C26.6735 12.1563 26.6388 12.3834 26.5612 12.5973C26.4837 12.8112 26.3647 13.0078 26.2112 13.1757C26.0658 13.3305 25.8893 13.4527 25.6933 13.5344C25.4973 13.6161 25.2862 13.6553 25.0739 13.6496C24.7818 13.6475 24.4934 13.5828 24.2283 13.46C23.5756 13.1679 22.9033 12.9218 22.2161 12.7237C21.5835 12.557 20.9313 12.4761 20.2771 12.4831C19.4251 12.4515 18.582 12.6667 17.8494 13.1028C17.5399 13.2907 17.2867 13.5584 17.1161 13.8777C16.9455 14.1971 16.8639 14.5564 16.8799 14.9182C16.8753 15.3926 17.0557 15.8503 17.3828 16.194C17.7718 16.5973 18.2314 16.926 18.7389 17.1636C19.3075 17.4457 20.1556 17.82 21.283 18.2864C21.408 18.3259 21.5299 18.3747 21.6476 18.4323C22.7478 18.8674 23.8026 19.4095 24.7969 20.0508C25.5823 20.5629 26.2446 21.2426 26.7361 22.0411C27.2198 22.8799 27.462 23.8362 27.4359 24.8042C27.4766 25.9898 27.1368 27.1574 26.4663 28.1361C25.7835 29.0625 24.8391 29.7634 23.7545 30.1483C22.4476 30.615 21.0667 30.8398 19.6792 30.8118C17.7726 30.8789 15.875 30.5202 14.1243 29.7619C13.6763 29.5626 13.2835 29.2574 12.9797 28.8725C12.728 28.52 12.5975 28.0952 12.6079 27.6622C12.5953 27.4337 12.6325 27.2052 12.7168 26.9925C12.8011 26.7798 12.9306 26.5879 13.0963 26.4301C13.444 26.1255 13.8955 25.9663 14.3574 25.9853C14.8715 25.9924 15.3764 26.1224 15.83 26.3644C16.3936 26.6465 16.8383 26.858 17.1642 26.9988C17.5364 27.1547 17.9219 27.2767 18.316 27.3633C18.8019 27.47 19.2983 27.5214 19.7957 27.5163C20.6752 27.5789 21.5504 27.3454 22.2818 26.853C22.5557 26.6387 22.7745 26.3623 22.9203 26.0466C23.0661 25.7309 23.1346 25.385 23.1201 25.0376C23.1212 24.5445 22.9334 24.0696 22.5953 23.7107C22.1485 23.2504 21.6257 22.8706 21.0499 22.588C20.3693 22.2284 19.4119 21.7909 18.1774 21.2756C17.0731 20.8356 16.0156 20.2861 15.0208 19.6352" fill="white"/>
</svg>
