<svg width="40" height="40" viewBox="0 0 40 40" fill="none" xmlns="http://www.w3.org/2000/svg">
<path d="M20.0016 0C8.95405 0 0 8.95617 0 20.0047C0 31.0486 8.95089 40 19.9905 40H20.0095C31.0507 40 40 31.047 40 20.0047C40.0016 8.95617 31.0475 0 20.0016 0Z" fill="#2F80ED"/>
<path d="M28.3664 11.8115L9.36898 19.0064C8.33013 19.3059 8.36323 20.3324 9.13095 20.58L13.8901 22.0653L15.7109 27.6503C15.9316 28.2621 16.1129 28.4923 16.4912 28.4971C16.8885 28.5018 17.0414 28.3567 17.4528 27.9925C17.9368 27.5384 18.6714 26.8241 19.8348 25.6935L24.7863 29.3533C25.6975 29.8563 26.3549 29.5961 26.5819 28.5065L29.6858 13.1486C30.0216 11.813 29.2381 11.4157 28.3664 11.8115ZM14.6389 21.7247L25.461 14.9335C25.9939 14.5756 26.161 14.9745 25.9214 15.2504L16.9405 23.3315L16.4802 27.3649L14.6389 21.7247Z" fill="white"/>
</svg>
