<svg width="40" height="40" viewBox="0 0 40 40" fill="none" xmlns="http://www.w3.org/2000/svg">
<path d="M19.9905 40H20.0095C31.0507 40 40 31.0495 40 20.0102V20.0008C40.0016 8.95369 31.0475 0 20.0016 0C8.95405 0 0 8.9537 0 19.9992V20.0087C0 31.0495 8.95089 40 19.9905 40Z" fill="#2F80ED"/>
<path d="M11.1788 8.06648C13.3859 6.43106 15.9945 5.44243 18.7132 5.19678V9.69561C16.9558 9.92344 15.2774 10.5963 13.8417 11.6601C12.044 12.9922 10.722 14.8668 10.0707 17.0073C9.41935 19.1478 9.47321 21.441 10.2243 23.5486C10.9754 25.6562 12.3839 27.4668 14.2421 28.713C16.1004 29.9591 18.3099 30.5751 20.5449 30.4702C22.7799 30.3651 24.9219 29.5446 26.6551 28.1297C28.3882 26.7146 29.6208 24.78 30.171 22.6114C30.5548 21.0986 30.5922 19.5278 30.2917 18.0134L34.0695 14.9762L34.067 14.9518C35.0868 17.757 35.2426 20.8089 34.5064 23.7111C33.7204 26.8093 31.9597 29.573 29.4837 31.5944C27.0077 33.6157 23.9477 34.7879 20.7548 34.9379C17.562 35.0879 14.4055 34.2079 11.7509 32.4275C9.09626 30.6473 7.08406 28.061 6.0111 25.05C4.93814 22.0392 4.86121 18.7632 5.79167 15.7053C6.72213 12.6474 8.6107 9.96944 11.1788 8.06648Z" fill="white"/>
<path d="M31.2208 10.1664L31.2367 10.2061L28.7121 14.2157C27.7939 12.8552 26.5638 11.7228 25.1239 10.9213V20.046C25.1239 22.8456 22.8545 25.1151 20.0549 25.1151C17.2553 25.1151 14.9858 22.8456 14.9858 20.046C14.9858 17.2465 17.2553 14.977 20.0549 14.977C21.1041 14.977 22.0789 15.2957 22.8876 15.8417V5.40576C26.1787 6.03877 29.0847 7.75391 31.2208 10.1664Z" fill="white"/>
</svg>
