<svg width="40" height="40" viewBox="0 0 40 40" fill="none" xmlns="http://www.w3.org/2000/svg">
<path d="M19.9905 40H20.0095C31.0507 40 40 31.0495 40 20.0102V20.0008C40.0016 8.95369 31.0475 0 20.0016 0C8.95405 0 0 8.9537 0 19.9992V20.0087C0 31.0495 8.95089 40 19.9905 40Z" fill="#2F80ED"/>
<path d="M31.6887 13.3957C30.88 13.7552 30.0098 13.9979 29.0971 14.1067C30.0288 13.5486 30.7445 12.6643 31.0818 11.6097C30.21 12.1268 29.2437 12.5019 28.2159 12.7053C27.393 11.8288 26.2201 11.2803 24.9227 11.2803C22.4304 11.2803 20.4095 13.3012 20.4095 15.7918C20.4095 16.1449 20.4489 16.4901 20.5261 16.8196C16.7758 16.632 13.4512 14.835 11.2253 12.1047C10.8375 12.7715 10.6136 13.5455 10.6136 14.3731C10.6136 15.9384 11.4097 17.3193 12.6204 18.1295C11.881 18.1059 11.1843 17.9041 10.5758 17.5652C10.5758 17.5841 10.5758 17.603 10.5758 17.6219C10.5758 19.8084 12.1317 21.6322 14.1952 22.0468C13.8169 22.1492 13.4181 22.2044 13.0066 22.2044C12.7165 22.2044 12.4328 22.176 12.1569 22.124C12.7307 23.9163 14.397 25.2216 16.3723 25.2578C14.8274 26.4685 12.8821 27.1904 10.7681 27.1904C10.4039 27.1904 10.0445 27.1684 9.69141 27.1274C11.6887 28.4074 14.0597 29.1546 16.6087 29.1546C24.9086 29.1546 29.4471 22.2785 29.4471 16.3167C29.4471 16.1213 29.4423 15.9274 29.4345 15.7335C30.3188 15.0951 31.0834 14.3006 31.6887 13.3957Z" fill="white"/>
</svg>
