<svg width="40" height="40" viewBox="0 0 40 40" fill="none" xmlns="http://www.w3.org/2000/svg">
<path d="M19.9905 40H20.0095C31.0507 40 40 31.0495 40 20.0102V20.0008C40.0016 8.95369 31.0475 0 20.0016 0C8.95405 0 0 8.9537 0 19.9992V20.0087C0 31.0495 8.95089 40 19.9905 40Z" fill="#2F80ED"/>
<path fill-rule="evenodd" clip-rule="evenodd" d="M19.2575 27.8754H20.774C20.774 27.8754 21.2312 27.825 21.4661 27.5727C21.682 27.341 21.6742 26.9075 21.6742 26.9075C21.6742 26.9075 21.6442 24.874 22.5885 24.5729C23.5201 24.2782 24.7151 26.5387 25.9809 27.4088C26.9394 28.0661 27.6661 27.9227 27.6661 27.9227L31.0538 27.8754C31.0538 27.8754 32.8257 27.7666 31.9855 26.3731C31.9161 26.2596 31.4968 25.3422 29.4664 23.4585C27.3414 21.4864 27.6267 21.8064 30.1852 18.3952C31.7427 16.3176 32.367 15.0502 32.1715 14.5079C31.9855 13.9909 30.8394 14.1264 30.8394 14.1264L27.0245 14.1501C27.0245 14.1501 26.7423 14.1123 26.5327 14.2368C26.3277 14.3597 26.1969 14.6466 26.1969 14.6466C26.1969 14.6466 25.5931 16.2529 24.7876 17.6212C23.0898 20.5044 22.4103 20.6573 22.1329 20.4792C21.4866 20.0614 21.6489 18.8019 21.6489 17.9081C21.6489 15.1132 22.073 13.9483 20.8229 13.6457C20.4083 13.5463 20.1025 13.4801 19.0431 13.4691C17.6827 13.4549 16.5303 13.4738 15.8777 13.7923C15.4442 14.0051 15.1084 14.478 15.3133 14.5048C15.5655 14.5379 16.1362 14.6592 16.4389 15.0707C16.8298 15.6019 16.8156 16.7968 16.8156 16.7968C16.8156 16.7968 17.0395 20.0866 16.2907 20.4949C15.7768 20.7755 15.0705 20.2033 13.5572 17.5865C12.7816 16.2466 12.1952 14.7649 12.1952 14.7649C12.1952 14.7649 12.0817 14.4874 11.8815 14.3392C11.6371 14.1595 11.295 14.1028 11.295 14.1028L7.67084 14.1264C7.67084 14.1264 7.12698 14.1422 6.92677 14.3787C6.74864 14.5899 6.91259 15.025 6.91259 15.025C6.91259 15.025 9.75014 21.663 12.9629 25.0096C15.9123 28.0772 19.2575 27.8754 19.2575 27.8754Z" fill="white"/>
</svg>
